<?xml version="1.0" encoding="UTF-8"?>
<svg xmlns="http://www.w3.org/2000/svg" version="1.1" viewBox="0 0 113.9 35.8">
  <defs>
    <style>
      .cls-1 {
        fill: #4c77f4;
      }

      .cls-2 {
        fill: #2a3547;
      }

      .cls-3 {
        fill: #2c63f4;
      }
    </style>
  </defs>
  <!-- Generator: Adobe Illustrator 28.6.0, SVG Export Plug-In . SVG Version: 1.2.0 Build 709)  -->
  <g>
    <g id="Layer_1">
      <g id="Layer_1-2" data-name="Layer_1">
        <g>
          <circle class="cls-1" cx="18.1" cy="17.9" r="17.6"/>
          <path class="cls-3" d="M33.1,27.2C24.9,11.4,10.9,8.5,3.4,8.2c-1.8,2.8-2.9,6.1-2.9,9.7,0,9.7,8,17.5,17.6,17.6,0,0,9.3.6,15-8.3Z"/>
        </g>
        <g>
          <polygon class="cls-2" points="51.2 26.9 63.3 26.9 63.4 23.9 54.6 23.9 54.6 19.3 62.9 19.3 62.9 16.4 54.6 16.4 54.6 11.9 63.4 11.9 63.4 8.9 51.3 8.9 51.2 26.9"/>
          <path class="cls-2" d="M73.8,14c-.8-.4-1.7-.6-2.8-.6s-1.6,0-2.3.4c-.7.3-1.4.7-1.9,1.2-.6.5-1,1.1-1.2,1.7v.2l2.6,1.3v-.2c.3-.5.7-1,1.2-1.3s1-.5,1.7-.5,1.3.2,1.7.5c.4.4.6.8.6,1.3v.3l-3.8.6c-1,.2-1.8.4-2.5.8s-1.2.9-1.5,1.5-.5,1.2-.5,2,.2,1.5.6,2c.4.6.9,1,1.6,1.4.7.3,1.5.5,2.4.5s1.4,0,2-.3c.6-.2,1.2-.5,1.6-.9l.2-.2v1.1h3v-8.8c0-.9-.2-1.7-.7-2.4-.5-.7-1.1-1.3-1.9-1.6h0ZM68.6,22.1c.3-.3.8-.5,1.4-.6l3.2-.6v.4c0,.6,0,1.1-.4,1.6s-.7.9-1.2,1.2c-.5.3-1.1.4-1.8.4s-.9-.1-1.3-.4c-.3-.3-.5-.6-.5-1s0-.8.4-1.1h.2Z"/>
          <path class="cls-2" d="M88.9,15c-.3-.3-.7-.6-1.1-.9-.8-.4-1.7-.7-2.7-.7s-2.3.3-3.3.9c-1,.6-1.7,1.3-2.3,2.3-.6,1-.8,2.1-.8,3.3s.3,2.3.8,3.3c.6,1,1.3,1.8,2.3,2.3,1,.6,2.1.9,3.3.9s1.9-.2,2.7-.7c.4-.2.7-.4,1-.7v1c0,.6,0,1.2-.4,1.6s-.7.8-1.2,1-1.1.4-1.7.4-1.5-.2-2-.5c-.5-.4-.9-.8-1.1-1.4v-.2l-3,1.2v.2c.4.7.8,1.4,1.4,1.9s1.3,1,2.1,1.3c.8.3,1.7.5,2.6.5s2.4-.3,3.3-.8c1-.5,1.7-1.2,2.3-2.1.5-.9.8-1.9.8-3.1v-12.3h-3v1.2h0q0,.1,0,.1ZM85.4,23.6c-.7,0-1.3-.2-1.8-.5s-.9-.7-1.2-1.3c-.3-.5-.4-1.1-.4-1.8s.2-1.3.4-1.8c.3-.5.7-1,1.2-1.3s1.1-.5,1.8-.5,1.2.2,1.7.5.9.7,1.2,1.3c.3.5.5,1.2.5,1.8s-.2,1.3-.4,1.8-.7,1-1.2,1.3-1.1.5-1.7.5h0Z"/>
          <rect class="cls-2" x="87.3" y="16.3" width="18.2" height="3.1" transform="translate(78.2 114.2) rotate(-89.8)"/>
          <path class="cls-2" d="M112.6,17.6c-.3-.8-.7-1.4-1.2-2s-1.2-1.1-2-1.4c-.8-.3-1.7-.5-2.7-.5s-2.3.3-3.3.9c-1,.6-1.8,1.4-2.3,2.4s-.9,2.2-.9,3.5.3,2.5.8,3.5c.6,1,1.4,1.9,2.4,2.5s2.2.9,3.5.9,1.7,0,2.5-.4,1.4-.7,2-1.2c.5-.5,1-1.1,1.2-1.7v-.2l-2.5-1.3v.2c-.4.5-.8.9-1.3,1.2-.5.3-1.1.5-1.8.5s-1.3-.2-1.9-.5-1-.8-1.3-1.4c-.2-.3-.3-.7-.3-1.1h9.4v-.2c0-.2,0-.4,0-.7v-.6c0-.9,0-1.7-.4-2.4h0ZM103.8,18.1c.3-.6.7-1.1,1.2-1.4s1.1-.5,1.7-.5,1.2.2,1.7.5.8.8,1.1,1.3c0,.2.2.5.2.7h-6.1c0-.2,0-.5.2-.7h0Z"/>
        </g>
      </g>
    </g>
  </g>
</svg>