<svg width="114" height="35" viewBox="0 0 114 35" fill="none" xmlns="http://www.w3.org/2000/svg">
<circle cx="17.5" cy="17.5" r="17.5" fill="#4474FD"/>
<mask id="mask0_8187_3147" style="mask-type:alpha" maskUnits="userSpaceOnUse" x="0" y="0" width="35" height="35">
<circle cx="17.5" cy="17.5" r="17.5" fill="#F8B15D"/>
</mask>
<g mask="url(#mask0_8187_3147)">
<path d="M-1.45768 25.9426C-1.45768 28.704 0.789829 30.9755 3.52882 30.6242C6.79408 30.2054 9.99613 29.3761 13.0524 28.1521C17.6527 26.3099 21.8326 23.6097 25.3534 20.2057C28.8743 16.8017 31.6673 12.7605 33.5728 8.31296C34.817 5.40887 35.6669 2.36863 36.107 -0.731977C36.495 -3.466 34.2204 -5.71545 31.459 -5.71545L3.54232 -5.71545C0.780899 -5.71545 -1.45768 -3.47688 -1.45768 -0.715454V25.9426Z" fill="#4474FD"/>
<g style="mix-blend-mode:multiply">
<path d="M-1.45768 11.9739C-1.45768 9.21251 0.789829 6.94102 3.52882 7.29232C6.79408 7.71113 9.99613 8.54044 13.0524 9.76436C17.6527 11.6066 21.8326 14.3068 25.3534 17.7108C28.8743 21.1148 31.6673 25.156 33.5728 29.6035C34.817 32.5076 35.6669 35.5479 36.107 38.6485C36.495 41.3825 34.2204 43.632 31.459 43.632H3.54232C0.780899 43.632 -1.45768 41.3934 -1.45768 38.632V11.9739Z" fill="#49BEFF"/>
</g>
</g>
<path d="M50.728 27.5V9.62H62.608V12.5H53.992V17.084H62.128V19.964H53.992V24.62H62.608V27.5H50.728ZM68.6974 27.788C67.7854 27.788 66.9934 27.636 66.3214 27.332C65.6494 27.028 65.1294 26.596 64.7614 26.036C64.3934 25.46 64.2094 24.796 64.2094 24.044C64.2094 23.324 64.3694 22.684 64.6894 22.124C65.0094 21.548 65.5054 21.068 66.1774 20.684C66.8494 20.3 67.6974 20.028 68.7214 19.868L72.9934 19.172V21.572L69.3214 22.196C68.6974 22.308 68.2334 22.508 67.9294 22.796C67.6254 23.084 67.4734 23.46 67.4734 23.924C67.4734 24.372 67.6414 24.732 67.9774 25.004C68.3294 25.26 68.7614 25.388 69.2734 25.388C69.9294 25.388 70.5054 25.252 71.0014 24.98C71.5134 24.692 71.9054 24.3 72.1774 23.804C72.4654 23.308 72.6094 22.764 72.6094 22.172V18.812C72.6094 18.252 72.3854 17.788 71.9374 17.42C71.5054 17.036 70.9294 16.844 70.2094 16.844C69.5374 16.844 68.9374 17.028 68.4094 17.396C67.8974 17.748 67.5214 18.22 67.2814 18.812L64.7134 17.564C64.9694 16.876 65.3694 16.284 65.9134 15.788C66.4734 15.276 67.1294 14.876 67.8814 14.588C68.6334 14.3 69.4494 14.156 70.3294 14.156C71.4014 14.156 72.3454 14.356 73.1614 14.756C73.9774 15.14 74.6094 15.684 75.0574 16.388C75.5214 17.076 75.7534 17.884 75.7534 18.812V27.5H72.7774V25.268L73.4494 25.22C73.1134 25.78 72.7134 26.252 72.2494 26.636C71.7854 27.004 71.2574 27.292 70.6654 27.5C70.0734 27.692 69.4174 27.788 68.6974 27.788ZM84.9953 32.78C84.0193 32.78 83.1153 32.62 82.2833 32.3C81.4513 31.98 80.7313 31.532 80.1233 30.956C79.5313 30.396 79.0993 29.732 78.8273 28.964L81.7553 27.86C81.9473 28.468 82.3233 28.956 82.8833 29.324C83.4593 29.708 84.1633 29.9 84.9953 29.9C85.6353 29.9 86.1953 29.78 86.6753 29.54C87.1713 29.3 87.5553 28.948 87.8273 28.484C88.0993 28.036 88.2353 27.492 88.2353 26.852V23.876L88.8353 24.596C88.3873 25.38 87.7873 25.972 87.0353 26.372C86.2833 26.772 85.4273 26.972 84.4673 26.972C83.2513 26.972 82.1633 26.692 81.2033 26.132C80.2433 25.572 79.4913 24.804 78.9473 23.828C78.4033 22.852 78.1313 21.756 78.1313 20.54C78.1313 19.308 78.4033 18.212 78.9473 17.252C79.4913 16.292 80.2353 15.54 81.1793 14.996C82.1233 14.436 83.1953 14.156 84.3953 14.156C85.3713 14.156 86.2273 14.364 86.9633 14.78C87.7153 15.18 88.3393 15.764 88.8353 16.532L88.4033 17.324V14.444H91.3793V26.852C91.3793 27.988 91.0993 29.004 90.5393 29.9C89.9953 30.796 89.2433 31.5 88.2833 32.012C87.3393 32.524 86.2433 32.78 84.9953 32.78ZM84.8513 24.068C85.5233 24.068 86.1073 23.924 86.6033 23.636C87.1153 23.332 87.5153 22.916 87.8033 22.388C88.0913 21.86 88.2353 21.252 88.2353 20.564C88.2353 19.892 88.0833 19.292 87.7793 18.764C87.4913 18.22 87.0913 17.796 86.5793 17.492C86.0833 17.188 85.5073 17.036 84.8513 17.036C84.1953 17.036 83.6033 17.188 83.0753 17.492C82.5473 17.796 82.1313 18.22 81.8273 18.764C81.5393 19.292 81.3953 19.892 81.3953 20.564C81.3953 21.236 81.5393 21.836 81.8273 22.364C82.1313 22.892 82.5393 23.308 83.0513 23.612C83.5793 23.916 84.1793 24.068 84.8513 24.068ZM94.3156 27.5V9.332H97.4596V27.5H94.3156ZM106.554 27.788C105.21 27.788 104.034 27.484 103.026 26.876C102.018 26.268 101.234 25.444 100.674 24.404C100.114 23.364 99.8344 22.212 99.8344 20.948C99.8344 19.636 100.114 18.476 100.674 17.468C101.25 16.444 102.026 15.636 103.002 15.044C103.994 14.452 105.098 14.156 106.314 14.156C107.338 14.156 108.234 14.324 109.002 14.66C109.786 14.996 110.45 15.46 110.994 16.052C111.538 16.644 111.954 17.324 112.242 18.092C112.53 18.844 112.674 19.66 112.674 20.54C112.674 20.764 112.658 20.996 112.626 21.236C112.61 21.476 112.57 21.684 112.506 21.86H102.426V19.46H110.73L109.242 20.588C109.386 19.852 109.346 19.196 109.122 18.62C108.914 18.044 108.562 17.588 108.066 17.252C107.586 16.916 107.002 16.748 106.314 16.748C105.658 16.748 105.074 16.916 104.562 17.252C104.05 17.572 103.658 18.052 103.386 18.692C103.13 19.316 103.034 20.076 103.098 20.972C103.034 21.772 103.138 22.484 103.41 23.108C103.698 23.716 104.114 24.188 104.658 24.524C105.218 24.86 105.858 25.028 106.578 25.028C107.298 25.028 107.906 24.876 108.402 24.572C108.914 24.268 109.314 23.86 109.602 23.348L112.146 24.596C111.89 25.22 111.49 25.772 110.946 26.252C110.402 26.732 109.754 27.108 109.002 27.38C108.266 27.652 107.45 27.788 106.554 27.788Z" fill="#2A3547"/>
</svg>
