<svg width="190" height="80" viewBox="0 0 190 80" fill="none" xmlns="http://www.w3.org/2000/svg">
<g clip-path="url(#clip0_409_6770)">
<path d="M40.3941 4.76319C60.0719 4.76319 75.9781 20.5683 75.9781 40C75.9781 59.4317 60.0173 75.2368 40.3941 75.2368C20.771 75.2368 4.81013 59.4317 4.81013 40C4.81013 20.5683 20.771 4.76319 40.3941 4.76319ZM40.3941 0C34.9281 0 29.626 1.08254 24.6519 3.13938C19.8418 5.14208 15.5236 8.06495 11.8067 11.6915C8.08976 15.3721 5.19275 19.6482 3.17031 24.4114C1.03855 29.3369 0 34.5873 0 40C0 45.4127 1.09321 50.6631 3.17031 55.5886C5.19275 60.3518 8.14442 64.6279 11.8067 68.3085C15.5236 71.9892 19.8418 74.8579 24.6519 76.8606C29.626 78.9716 34.9281 80 40.3941 80C45.8602 80 51.1623 78.9175 56.1364 76.8606C60.9465 74.8579 65.2647 71.935 68.9816 68.3085C72.6985 64.6279 75.5955 60.3518 77.618 55.5886C79.7497 50.6631 80.7883 45.4127 80.7883 40C80.7883 34.5873 79.6951 29.3369 77.618 24.4114C75.5955 19.6482 72.6438 15.3721 68.9816 11.6915C65.2647 8.01083 60.9465 5.14208 56.1364 3.13938C51.1623 1.02842 45.8602 0 40.3941 0Z" fill="white"/>
<path d="M29.7357 68.5253H23.2311V61.4347H27.6586V39.892H21.9192V59.2696H8.63672V57.2127H19.8421V37.8352H29.7357V61.4347H33.5073V26.7932H45.6419V51.4211H48.2109V13.4238H60.7282V52.7202H74.1747V54.777H60.7282V59.3237H53.6223V52.7202H58.6511V15.4807H50.288V53.478H45.6419V59.1613H39.3559V51.4211H43.5648V28.8501H35.639V63.4915H29.7357V68.5253ZM25.3628 66.4685H27.7132V63.4915H25.3628V66.4685ZM55.6994 57.2669H58.6511V54.777H55.6994V57.2669ZM41.433 57.1045H43.5648V53.478H41.433V57.1045Z" fill="white"/>
<path d="M98.7712 28.4169H100.63V14.6686H105.057V12.9365H94.3438V14.6686H98.7712V28.4169Z" fill="white"/>
<path d="M107.681 20.6226H115.934V28.4169H117.848V12.9365H115.934V18.8905H107.681V12.9365H105.822V28.4169H107.681V20.6226Z" fill="white"/>
<path d="M128.508 26.6848H122.112V20.785H128.508V19.0529H122.112V14.6145H128.508V12.9365H120.254V28.4169H128.508V26.6848Z" fill="white"/>
<path d="M104.62 34.3167V31.2314H94.3984V48.6604H97.9514V40.8661H104.62V37.6726H97.9514V34.3167H104.62Z" fill="white"/>
<path d="M109.758 31.2314H106.205V48.6604H109.758V31.2314Z" fill="white"/>
<path d="M124.025 41.7861C123.752 41.4613 123.424 41.1366 123.151 40.8659L112.929 31.123H111.781V48.6603H115.116V37.8889L115.17 37.9431C115.444 38.2678 115.717 38.5385 116.045 38.8632L126.376 48.6603H127.578V31.2313H124.244V42.0026C124.189 41.9485 124.08 41.8402 124.025 41.7861Z" fill="white"/>
<path d="M158.406 42.0026C158.351 41.8944 158.242 41.8402 158.187 41.7861C157.914 41.4613 157.586 41.1366 157.313 40.8659L147.091 31.123H145.943V48.6603H149.278V37.8889L149.332 37.9431C149.606 38.2678 149.879 38.5385 150.207 38.8632L160.538 48.6603H161.74V31.2313H158.406V42.0026Z" fill="white"/>
<path d="M131.733 48.6603L133.7 44.3842H139.768L141.681 48.6603H145.452L137.199 31.123H136.215L127.961 48.6603H131.733ZM136.488 38.1055C136.597 37.8889 136.652 37.6724 136.707 37.4559C136.761 37.6724 136.871 37.8889 136.925 38.1055L138.401 41.299H135.012L136.488 38.1055Z" fill="white"/>
<path d="M172.29 34.1543C173.165 34.1543 174.039 34.3167 174.859 34.5873C175.679 34.9121 176.444 35.3451 177.155 35.9946L177.811 36.5359L178.03 32.747L177.866 32.6387C176.991 32.0433 176.062 31.6103 175.187 31.2856C174.258 31.0149 173.274 30.8525 172.236 30.8525C170.924 30.8525 169.721 31.069 168.573 31.5021C167.425 31.9351 166.442 32.5846 165.567 33.4506C164.692 34.3167 164.037 35.291 163.545 36.4276C163.107 37.5643 162.834 38.7551 162.834 40C162.834 41.245 163.053 42.4899 163.545 43.5724C163.982 44.7091 164.692 45.6834 165.512 46.4953C166.387 47.3613 167.371 48.0109 168.519 48.4439C169.667 48.8769 170.869 49.0934 172.236 49.0934C173.274 49.0934 174.258 48.931 175.133 48.7145C176.007 48.4439 176.882 48.0109 177.647 47.4696L177.811 47.3613V43.1935L177.1 43.7889C176.335 44.4385 175.515 44.9797 174.641 45.3045C173.821 45.6293 172.892 45.7916 171.962 45.7916C170.377 45.7916 169.065 45.2504 168.027 44.1678C166.988 43.0853 166.442 41.678 166.442 40C166.442 38.3221 166.988 36.8607 168.027 35.7781C169.229 34.6956 170.596 34.1543 172.29 34.1543Z" fill="white"/>
<path d="M190.001 34.3167V31.2314H179.834V48.6604H190.001V45.4128H183.387V41.0285H189.181V37.835H183.387V34.3167H190.001Z" fill="white"/>
<path d="M104.729 51.1504H94.4527V52.8825H101.559L93.6328 66.6308H104.729V64.8987H96.8578L104.729 51.1504Z" fill="white"/>
<path d="M119.268 53.2074C118.503 52.4496 117.574 51.8542 116.535 51.4753C115.497 51.0423 114.458 50.8799 113.31 50.8799C112.162 50.8799 111.124 51.0964 110.14 51.4753C109.101 51.9083 108.227 52.4496 107.407 53.2074C106.587 53.9651 105.986 54.8312 105.603 55.8055C105.166 56.7797 105.002 57.8082 105.002 58.9448C105.002 60.0815 105.221 61.0558 105.603 62.0842C106.04 63.0585 106.642 63.9245 107.407 64.6823C108.172 65.4401 109.101 66.0355 110.14 66.4144C111.179 66.8474 112.217 67.0098 113.31 67.0098C114.404 67.0098 115.497 66.7933 116.481 66.4144C117.519 65.9814 118.394 65.4401 119.214 64.6823C119.979 63.9245 120.58 63.0585 121.017 62.0842C121.455 61.1099 121.619 60.0815 121.619 58.9448C121.619 57.8082 121.4 56.7797 121.017 55.8055C120.635 54.8312 120.034 53.9651 119.268 53.2074ZM119.268 61.3806C118.94 62.1383 118.503 62.842 117.847 63.4374C117.246 64.0328 116.535 64.5199 115.77 64.8447C115.005 65.1695 114.185 65.3318 113.31 65.3318C112.436 65.3318 111.616 65.1695 110.851 64.8447C110.085 64.5199 109.375 64.0328 108.774 63.4374C108.172 62.842 107.68 62.1383 107.352 61.3806C107.024 60.6228 106.86 59.8109 106.86 58.9448C106.86 58.0788 107.024 57.2669 107.352 56.5091C107.68 55.7513 108.118 55.0477 108.774 54.4523C109.375 53.8569 110.085 53.3697 110.851 53.045C111.616 52.7202 112.436 52.5578 113.31 52.5578C114.185 52.5578 115.005 52.7202 115.77 53.045C116.535 53.3697 117.246 53.8028 117.847 54.4523C118.448 55.0477 118.94 55.7513 119.214 56.5091C119.542 57.2669 119.706 58.1329 119.706 58.999C119.76 59.8109 119.596 60.6228 119.268 61.3806Z" fill="white"/>
<path d="M136.268 53.2074C135.503 52.4496 134.574 51.8542 133.535 51.4753C132.497 51.0423 131.458 50.8799 130.31 50.8799C129.162 50.8799 128.124 51.0964 127.14 51.4753C126.101 51.9083 125.227 52.4496 124.407 53.2074C123.587 53.9651 122.986 54.8312 122.603 55.8055C122.166 56.7797 122.002 57.8082 122.002 58.9448C122.002 60.0815 122.221 61.0558 122.603 62.0842C123.041 63.0585 123.642 63.9245 124.407 64.6823C125.172 65.4401 126.101 66.0355 127.14 66.4144C128.179 66.8474 129.217 67.0098 130.31 67.0098C131.404 67.0098 132.497 66.7933 133.481 66.4144C134.519 65.9814 135.394 65.4401 136.214 64.6823C136.979 63.9245 137.58 63.0585 138.017 62.0842C138.455 61.1099 138.619 60.0815 138.619 58.9448C138.619 57.8082 138.4 56.7797 138.017 55.8055C137.69 54.8312 137.088 53.9651 136.268 53.2074ZM136.268 61.3806C135.94 62.1383 135.503 62.842 134.847 63.4374C134.246 64.0328 133.535 64.5199 132.77 64.8447C132.005 65.1695 131.185 65.3318 130.31 65.3318C129.436 65.3318 128.616 65.1695 127.851 64.8447C127.085 64.5199 126.375 64.0328 125.774 63.4374C125.172 62.842 124.68 62.1383 124.352 61.3806C124.024 60.6228 123.86 59.8109 123.86 58.9448C123.86 58.0788 124.024 57.2669 124.352 56.5091C124.68 55.7513 125.118 55.0477 125.774 54.4523C126.375 53.8569 127.085 53.3697 127.851 53.045C128.616 52.7202 129.436 52.5578 130.31 52.5578C131.185 52.5578 132.005 52.7202 132.77 53.045C133.535 53.3697 134.246 53.8028 134.847 54.4523C135.448 55.0477 135.94 55.7513 136.214 56.5091C136.542 57.2669 136.706 58.1329 136.706 58.999C136.76 59.8109 136.596 60.6228 136.268 61.3806Z" fill="white"/>
<path d="M139.385 51.2588V55.3183V59.1072V66.9557H141.517V58.1871L147.037 66.7392L152.613 58.3495V66.9557H154.69V59.432V55.3183V51.2588L147.037 62.842L139.385 51.2588Z" fill="white"/>
</g>
<defs>
<clipPath id="clip0_409_6770">
<rect width="190" height="80" fill="white"/>
</clipPath>
</defs>
</svg>
