<svg width="84" height="35" viewBox="0 0 84 35" fill="none" xmlns="http://www.w3.org/2000/svg">
<g clip-path="url(#clip0_20_15451)">
<path d="M17.8585 2.0839C26.5581 2.0839 33.5903 8.99865 33.5903 17.5C33.5903 26.0014 26.5339 32.9161 17.8585 32.9161C9.18297 32.9161 2.12658 26.0014 2.12658 17.5C2.12658 8.99865 9.18297 2.0839 17.8585 2.0839ZM17.8585 0C15.4419 0 13.0978 0.473613 10.8987 1.37348C8.77215 2.24966 6.86306 3.52842 5.21979 5.11502C3.57652 6.7253 2.29574 8.59608 1.40161 10.68C0.459148 12.8349 0 15.1319 0 17.5C0 19.8681 0.483314 22.1651 1.40161 24.32C2.29574 26.4039 3.60069 28.2747 5.21979 29.885C6.86306 31.4953 8.77215 32.7503 10.8987 33.6265C13.0978 34.5501 15.4419 35 17.8585 35C20.275 35 22.6191 34.5264 24.8182 33.6265C26.9448 32.7503 28.8539 31.4716 30.4971 29.885C32.1404 28.2747 33.4212 26.4039 34.3153 24.32C35.2578 22.1651 35.7169 19.8681 35.7169 17.5C35.7169 15.1319 35.2336 12.8349 34.3153 10.68C33.4212 8.59608 32.1162 6.7253 30.4971 5.11502C28.8539 3.50474 26.9448 2.24966 24.8182 1.37348C22.6191 0.449932 20.275 0 17.8585 0Z" fill="#B57B08"/>
<path d="M13.1463 29.9799H10.2706V26.8778H12.228V17.4529H9.69063V25.9306H3.81836V25.0307H8.77233V16.553H13.1463V26.8778H14.8138V11.7222H20.1785V22.4969H21.3143V5.87305H26.8483V23.0652H32.793V23.9651H26.8483V25.9542H23.7067V23.0652H25.93V6.77291H22.2326V23.3967H20.1785V25.8832H17.3995V22.4969H19.2602V12.622H15.7562V27.7776H13.1463V29.9799ZM11.2131 29.0801H12.2522V27.7776H11.2131V29.0801ZM24.625 25.0544H25.93V23.9651H24.625V25.0544ZM18.3178 24.9833H19.2602V23.3967H18.3178V24.9833Z" fill="#B57B08"/>
<path d="M43.6664 12.4318H44.488V6.41696H46.4455V5.65918H41.709V6.41696H43.6664V12.4318Z" fill="#00003A"/>
<path d="M47.6048 9.02183H51.2539V12.4318H52.0997V5.65918H51.2539V8.26405H47.6048V5.65918H46.7832V12.4318H47.6048V9.02183Z" fill="#00003A"/>
<path d="M56.815 11.6741H53.9876V9.09287H56.815V8.33509H53.9876V6.39328H56.815V5.65918H53.166V12.4318H56.815V11.6741Z" fill="#00003A"/>
<path d="M46.2534 15.0139V13.6641H41.7344V21.2892H43.3051V17.8792H46.2534V16.4821H43.3051V15.0139H46.2534Z" fill="#00003A"/>
<path d="M48.5258 13.6641H46.9551V21.2892H48.5258V13.6641Z" fill="#00003A"/>
<path d="M54.8311 18.2813C54.7103 18.1392 54.5653 17.9971 54.4444 17.8787L49.9255 13.6162H49.418V21.2887H50.8921V16.5763L50.9162 16.6C51.0371 16.7421 51.1579 16.8605 51.3029 17.0025L55.8702 21.2887H56.4019V13.6636H54.9278V18.376C54.9036 18.3523 54.8553 18.305 54.8311 18.2813Z" fill="#00003A"/>
<path d="M70.0332 18.376C70.009 18.3287 69.9607 18.305 69.9366 18.2813C69.8157 18.1392 69.6707 17.9971 69.5499 17.8787L65.0309 13.6162H64.5234V21.2887H65.9975V16.5763L66.0217 16.6C66.1425 16.7421 66.2634 16.8605 66.4084 17.0025L70.9757 21.2887H71.5073V13.6636H70.0332V18.376Z" fill="#00003A"/>
<path d="M58.2377 21.2887L59.1077 19.418H61.7901L62.6359 21.2887H64.3033L60.6543 13.6162H60.2193L56.5703 21.2887H58.2377ZM60.3402 16.671C60.3885 16.5763 60.4127 16.4816 60.4368 16.3868C60.461 16.4816 60.5093 16.5763 60.5335 16.671L61.186 18.0682H59.6877L60.3402 16.671Z" fill="#00003A"/>
<path d="M76.1709 14.9426C76.5576 14.9426 76.9442 15.0136 77.3067 15.132C77.6692 15.2741 78.0075 15.4635 78.3217 15.7477L78.6116 15.9845L78.7083 14.3269L78.6358 14.2795C78.2492 14.019 77.8383 13.8296 77.4517 13.6875C77.0409 13.5691 76.6059 13.498 76.1467 13.498C75.5668 13.498 75.0351 13.5928 74.5276 13.7822C74.0202 13.9717 73.5852 14.2558 73.1985 14.6347C72.8119 15.0136 72.5219 15.4399 72.3044 15.9372C72.1111 16.4344 71.9902 16.9554 71.9902 17.5001C71.9902 18.0447 72.0869 18.5894 72.3044 19.063C72.4977 19.5603 72.8119 19.9865 73.1744 20.3418C73.561 20.7206 73.996 21.0048 74.5035 21.1943C75.0109 21.3837 75.5426 21.4784 76.1467 21.4784C76.6059 21.4784 77.0409 21.4074 77.4275 21.3127C77.8142 21.1943 78.2008 21.0048 78.5391 20.768L78.6116 20.7206V18.8972L78.2975 19.1577C77.9592 19.4419 77.5967 19.6787 77.21 19.8208C76.8475 19.9629 76.4367 20.0339 76.0259 20.0339C75.3251 20.0339 74.7451 19.7971 74.286 19.3235C73.8268 18.8499 73.5852 18.2342 73.5852 17.5001C73.5852 16.766 73.8268 16.1266 74.286 15.653C74.8176 15.1794 75.4218 14.9426 76.1709 14.9426Z" fill="#00003A"/>
<path d="M83.9987 15.0139V13.6641H79.5039V21.2892H83.9987V19.8684H81.0747V17.9503H83.6362V16.5531H81.0747V15.0139H83.9987Z" fill="#00003A"/>
<path d="M46.3021 22.3779H41.759V23.1357H44.9005L41.3965 29.1506H46.3021V28.3928H42.8223L46.3021 22.3779Z" fill="#00003A"/>
<path d="M52.7291 23.278C52.3908 22.9465 51.98 22.686 51.5208 22.5203C51.0617 22.3308 50.6025 22.2598 50.0951 22.2598C49.5876 22.2598 49.1284 22.3545 48.6935 22.5203C48.2343 22.7097 47.8477 22.9465 47.4852 23.278C47.1227 23.6096 46.8569 23.9885 46.6877 24.4147C46.4944 24.841 46.4219 25.2909 46.4219 25.7882C46.4219 26.2855 46.5185 26.7117 46.6877 27.1617C46.881 27.5879 47.1468 27.9668 47.4852 28.2983C47.8235 28.6299 48.2343 28.8903 48.6935 29.0561C49.1526 29.2456 49.6117 29.3166 50.0951 29.3166C50.5784 29.3166 51.0617 29.2219 51.4967 29.0561C51.9558 28.8667 52.3425 28.6299 52.705 28.2983C53.0433 27.9668 53.3091 27.5879 53.5024 27.1617C53.6958 26.7354 53.7682 26.2855 53.7682 25.7882C53.7682 25.2909 53.6716 24.841 53.5024 24.4147C53.3333 23.9885 53.0674 23.6096 52.7291 23.278ZM52.7291 26.8538C52.5841 27.1853 52.3908 27.4932 52.1008 27.7537C51.835 28.0142 51.5208 28.2273 51.1825 28.3694C50.8442 28.5115 50.4817 28.5825 50.0951 28.5825C49.7084 28.5825 49.3459 28.5115 49.0076 28.3694C48.6693 28.2273 48.3551 28.0142 48.0893 27.7537C47.8235 27.4932 47.606 27.1853 47.461 26.8538C47.316 26.5223 47.2435 26.1671 47.2435 25.7882C47.2435 25.4093 47.316 25.0541 47.461 24.7226C47.606 24.391 47.7993 24.0832 48.0893 23.8227C48.3551 23.5622 48.6693 23.3491 49.0076 23.207C49.3459 23.0649 49.7084 22.9939 50.0951 22.9939C50.4817 22.9939 50.8442 23.0649 51.1825 23.207C51.5208 23.3491 51.835 23.5385 52.1008 23.8227C52.3666 24.0832 52.5841 24.391 52.705 24.7226C52.85 25.0541 52.9224 25.433 52.9224 25.8119C52.9466 26.1671 52.8741 26.5223 52.7291 26.8538Z" fill="#00003A"/>
<path d="M60.2448 23.278C59.9064 22.9465 59.4956 22.686 59.0365 22.5203C58.5773 22.3308 58.1182 22.2598 57.6107 22.2598C57.1032 22.2598 56.6441 22.3545 56.2091 22.5203C55.7499 22.7097 55.3633 22.9465 55.0008 23.278C54.6383 23.6096 54.3725 23.9885 54.2033 24.4147C54.01 24.841 53.9375 25.2909 53.9375 25.7882C53.9375 26.2855 54.0342 26.7117 54.2033 27.1617C54.3966 27.5879 54.6625 27.9668 55.0008 28.2983C55.3391 28.6299 55.7499 28.8903 56.2091 29.0561C56.6682 29.2456 57.1274 29.3166 57.6107 29.3166C58.094 29.3166 58.5773 29.2219 59.0123 29.0561C59.4714 28.8667 59.8581 28.6299 60.2206 28.2983C60.5589 27.9668 60.8247 27.5879 61.0181 27.1617C61.2114 26.7354 61.2839 26.2855 61.2839 25.7882C61.2839 25.2909 61.1872 24.841 61.0181 24.4147C60.8731 23.9885 60.6072 23.6096 60.2448 23.278ZM60.2448 26.8538C60.0998 27.1853 59.9064 27.4932 59.6164 27.7537C59.3506 28.0142 59.0365 28.2273 58.6981 28.3694C58.3598 28.5115 57.9973 28.5825 57.6107 28.5825C57.224 28.5825 56.8615 28.5115 56.5232 28.3694C56.1849 28.2273 55.8708 28.0142 55.6049 27.7537C55.3391 27.4932 55.1216 27.1853 54.9766 26.8538C54.8316 26.5223 54.7591 26.1671 54.7591 25.7882C54.7591 25.4093 54.8316 25.0541 54.9766 24.7226C55.1216 24.391 55.3149 24.0832 55.6049 23.8227C55.8708 23.5622 56.1849 23.3491 56.5232 23.207C56.8615 23.0649 57.224 22.9939 57.6107 22.9939C57.9973 22.9939 58.3598 23.0649 58.6981 23.207C59.0365 23.3491 59.3506 23.5385 59.6164 23.8227C59.8823 24.0832 60.0998 24.391 60.2206 24.7226C60.3656 25.0541 60.4381 25.433 60.4381 25.8119C60.4622 26.1671 60.3897 26.5223 60.2448 26.8538Z" fill="#00003A"/>
<path d="M61.6211 22.4258V24.2018V25.8595V29.2932H62.5636V25.4569L65.0043 29.1984L67.4692 25.5279V29.2932H68.3875V26.0016V24.2018V22.4258L65.0043 27.4934L61.6211 22.4258Z" fill="#00003A"/>
</g>
<defs>
<clipPath id="clip0_20_15451">
<rect width="84" height="35" fill="white"/>
</clipPath>
</defs>
</svg>
