<svg width="26" height="24" viewBox="0 0 26 24" fill="none" xmlns="http://www.w3.org/2000/svg">
<path d="M10.408 4.5L7.4668 7.2225" stroke="#5A6A85" stroke-width="1.5" stroke-miterlimit="10" stroke-linecap="round" stroke-linejoin="round"/>
<path d="M15.5918 4.5L18.533 7.2225" stroke="#5A6A85" stroke-width="1.5" stroke-miterlimit="10" stroke-linecap="round" stroke-linejoin="round"/>
<path d="M4.875 8.8877C4.875 7.5002 5.67937 7.3877 6.67875 7.3877H19.3213C20.3206 7.3877 21.125 7.5002 21.125 8.8877C21.125 10.5002 20.3206 10.3877 19.3213 10.3877H6.67875C5.67937 10.3877 4.875 10.5002 4.875 8.8877Z" stroke="#5A6A85" stroke-width="1.5"/>
<path d="M11.1802 13.5V16.1625" stroke="#5A6A85" stroke-width="1.5" stroke-linecap="round"/>
<path d="M14.917 13.5V16.1625" stroke="#5A6A85" stroke-width="1.5" stroke-linecap="round"/>
<path d="M6.09375 10.5L7.23937 16.98C7.49937 18.435 8.125 19.5 10.4487 19.5H15.3481C17.875 19.5 18.2487 18.48 18.5412 17.07L19.9062 10.5" stroke="#5A6A85" stroke-width="1.5" stroke-linecap="round"/>
</svg>
