<svg width="24" height="24" viewBox="0 0 24 24" fill="none" xmlns="http://www.w3.org/2000/svg">
<path d="M9.5272 16.1132L9.75 15.868V14.6594L6.09961 6.95312H4.40039L0.75 14.6594V15.927L0.948469 16.1424C1.49358 16.7326 2.15483 17.2038 2.89069 17.5263C3.62656 17.8488 4.42115 18.0157 5.22459 18.0165H5.24428C6.05103 18.0129 6.84825 17.8419 7.58549 17.5143C8.32272 17.1867 8.98391 16.7096 9.5272 16.1132ZM8.25 15.2785C7.44976 16.0734 6.36707 16.5186 5.23917 16.5166H5.2237C4.11564 16.5222 3.04899 16.0959 2.25 15.3281V14.9969L5.25 8.6635L8.25 14.9969V15.2785ZM19.5996 6.95312H17.9004L14.25 14.6594V15.927L14.4485 16.1424C14.9936 16.7326 15.6548 17.2038 16.3907 17.5263C17.1266 17.8488 17.9212 18.0157 18.7246 18.0165H18.7443C19.551 18.0129 20.3483 17.8419 21.0855 17.5143C21.8227 17.1866 22.4839 16.7095 23.0272 16.1131L23.25 15.868V14.6594L19.5996 6.95312ZM21.75 15.2785C20.9498 16.0734 19.8671 16.5186 18.7392 16.5166H18.7237C17.6156 16.5222 16.549 16.0959 15.75 15.3281V14.9969L18.75 8.6635L21.75 14.9969V15.2785Z" fill="#2A3547"/>
<path d="M12.75 7.2184C13.1672 7.093 13.5469 6.86612 13.8549 6.55806C14.163 6.25 14.3899 5.87037 14.5153 5.45314H19.5V3.95314H14.5153C14.3538 3.41142 14.0218 2.93629 13.5686 2.59846C13.1154 2.26062 12.5653 2.07813 12 2.07812C11.4347 2.07813 10.8846 2.26062 10.4314 2.59846C9.97819 2.93629 9.64617 3.41142 9.48473 3.95314H4.5V5.45314H9.48473C9.61013 5.87037 9.83701 6.25 10.1451 6.55806C10.4531 6.86612 10.8328 7.093 11.25 7.2184V19.7031H6.375V21.2031H17.625V19.7031H12.75V7.2184ZM10.875 4.70314C10.875 4.48063 10.941 4.26313 11.0646 4.07812C11.1882 3.89312 11.3639 3.74892 11.5695 3.66377C11.775 3.57862 12.0012 3.55635 12.2195 3.59975C12.4377 3.64316 12.6382 3.75031 12.7955 3.90764C12.9528 4.06498 13.06 4.26543 13.1034 4.48366C13.1468 4.70189 13.1245 4.92809 13.0394 5.13366C12.9542 5.33922 12.81 5.51492 12.625 5.63854C12.44 5.76216 12.2225 5.82814 12 5.82814C11.7016 5.82814 11.4155 5.70961 11.2045 5.49863C10.9935 5.28765 10.875 5.00151 10.875 4.70314Z" fill="#2A3547"/>
</svg>
