<svg width="26" height="24" viewBox="0 0 26 24" fill="none" xmlns="http://www.w3.org/2000/svg">
<path d="M10.5625 19.5H15.4375C19.5 19.5 21.125 18 21.125 14.25V9.75C21.125 6 19.5 4.5 15.4375 4.5H10.5625C6.5 4.5 4.875 6 4.875 9.75V14.25C4.875 18 6.5 19.5 10.5625 19.5Z" stroke="#5A6A85" stroke-width="1.5" stroke-linecap="round" stroke-linejoin="round"/>
<path d="M15.8438 16.875C16.7375 16.875 17.4688 16.2 17.4688 15.375V8.625C17.4688 7.8 16.7375 7.125 15.8438 7.125C14.95 7.125 14.2188 7.8 14.2188 8.625V15.375C14.2188 16.2 14.9419 16.875 15.8438 16.875Z" stroke="#5A6A85" stroke-width="1.5" stroke-linecap="round" stroke-linejoin="round"/>
<path d="M10.1562 16.875C11.05 16.875 11.7812 16.2 11.7812 15.375V12.75C11.7812 11.925 11.05 11.25 10.1562 11.25C9.2625 11.25 8.53125 11.925 8.53125 12.75V15.375C8.53125 16.2 9.25437 16.875 10.1562 16.875Z" stroke="#5A6A85" stroke-width="1.5" stroke-linecap="round" stroke-linejoin="round"/>
</svg>
