<svg width="24" height="24" viewBox="0 0 24 24" fill="none" xmlns="http://www.w3.org/2000/svg">
<path d="M16.1971 2H7.8129C4.17108 2 2 4.17 2 7.81V16.18C2 19.83 4.17108 22 7.8129 22H16.1871C19.8289 22 22 19.83 22 16.19V7.81C22.01 4.17 19.8389 2 16.1971 2Z" fill="#EAEFF4"/>
<path d="M11.9921 6C11.2376 6 10.5664 6.46316 10.3169 7.15789H6.64577V8.31579H7.80413L6.05173 12.3684C5.77254 13.5263 6.64577 14.1053 8.13085 14.1053C9.61593 14.1053 10.5426 13.5263 10.21 12.3684L8.45757 8.31579H10.3109C10.507 8.80789 10.8931 9.18421 11.398 9.37526V15.8421H6.05173V17H17.9324V15.8421H12.5861V9.36947C13.091 9.18421 13.4771 8.80789 13.6672 8.31579H15.5266L13.7742 12.3684C13.495 13.5263 14.3682 14.1053 15.8533 14.1053C17.3384 14.1053 18.265 13.5263 17.9324 12.3684L16.18 8.31579H17.3384V7.15789H13.6732C13.4177 6.46316 12.7465 6 11.9921 6ZM11.9921 7.15789C12.1496 7.15789 12.3007 7.21889 12.4121 7.32746C12.5235 7.43604 12.5861 7.5833 12.5861 7.73684C12.5861 7.89039 12.5235 8.03765 12.4121 8.14622C12.3007 8.25479 12.1496 8.31579 11.9921 8.31579C11.8345 8.31579 11.6834 8.25479 11.572 8.14622C11.4606 8.03765 11.398 7.89039 11.398 7.73684C11.398 7.5833 11.4606 7.43604 11.572 7.32746C11.6834 7.21889 11.8345 7.15789 11.9921 7.15789ZM8.13085 10.1974L9.0219 12.3684H7.2398L8.13085 10.1974ZM15.8533 10.1974L16.7443 12.3684H14.9622L15.8533 10.1974Z" fill="#7C8FAC"/>
</svg>
