<svg width="24" height="24" viewBox="0 0 24 24" fill="none" xmlns="http://www.w3.org/2000/svg">
<path d="M12 2C6.42857 2 2 6.42857 2 12C2 17.5714 6.42857 22 12 22C17.5714 22 22 17.5714 22 12C22 6.42857 17.5714 2 12 2ZM12 20.5714C7.28571 20.5714 3.42857 16.7143 3.42857 12C3.42857 7.28571 7.28571 3.42857 12 3.42857C16.7143 3.42857 20.5714 7.28571 20.5714 12C20.5714 16.7143 16.7143 20.5714 12 20.5714Z" fill="#2A3547"/>
<path d="M15.8571 17L12 13.1429L8.14286 17L7 15.8571L10.8571 12L7 8.14286L8.14286 7L12 10.8571L15.8571 7L17 8.14286L13.1429 12L17 15.8571L15.8571 17Z" fill="#2A3547"/>
</svg>
