<svg width="24" height="24" viewBox="0 0 24 24" fill="none" xmlns="http://www.w3.org/2000/svg">
<path d="M2 21.775L3.775 15.75C3.45833 15.0833 3.21267 14.396 3.038 13.688C2.86267 12.9793 2.775 12.25 2.775 11.5C2.775 10.1833 3.025 8.94567 3.525 7.787C4.025 6.629 4.7 5.625 5.55 4.775C6.4 3.925 7.40433 3.25 8.563 2.75C9.721 2.25 10.9583 2 12.275 2C13.5917 2 14.8293 2.25 15.988 2.75C17.146 3.25 18.15 3.925 19 4.775C19.85 5.625 20.525 6.629 21.025 7.787C21.525 8.94567 21.775 10.1833 21.775 11.5C21.775 12.8167 21.525 14.054 21.025 15.212C20.525 16.3707 19.85 17.375 19 18.225C18.15 19.075 17.146 19.75 15.988 20.25C14.8293 20.75 13.5917 21 12.275 21C11.525 21 10.7957 20.9127 10.087 20.738C9.379 20.5627 8.69167 20.3167 8.025 20L2 21.775ZM4.225 19.55L7.425 18.6C7.675 18.5333 7.91267 18.504 8.138 18.512C8.36267 18.5207 8.59167 18.5833 8.825 18.7C9.35833 18.9667 9.91667 19.1667 10.5 19.3C11.0833 19.4333 11.675 19.5 12.275 19.5C14.5083 19.5 16.4 18.725 17.95 17.175C19.5 15.625 20.275 13.7333 20.275 11.5C20.275 9.26667 19.5 7.375 17.95 5.825C16.4 4.275 14.5083 3.5 12.275 3.5C10.0417 3.5 8.15 4.275 6.6 5.825C5.05 7.375 4.275 9.26667 4.275 11.5C4.275 12.1 4.34167 12.6917 4.475 13.275C4.60833 13.8583 4.80833 14.4167 5.075 14.95C5.19167 15.1667 5.25433 15.3957 5.263 15.637C5.271 15.879 5.24167 16.1167 5.175 16.35L4.225 19.55Z" fill="#2A3547"/>
</svg>
