<svg width="24" height="24" viewBox="0 0 24 24" fill="none" xmlns="http://www.w3.org/2000/svg">
<path d="M10.5 6.5585L10.5085 6.54915M13.9 8.2585L13.9085 8.24915M7.10001 8.2585L7.10851 8.24915M15.6 11.6585L15.6085 11.6491M5.40001 11.6585L5.40851 11.6491M14.75 15.0585L14.7585 15.0491M6.25001 15.0585L6.25851 15.0491M10.5 15.05L11.35 9.95M7.52501 17.6008H3.70001C2.59414 16.1305 1.99736 14.3398 2.00001 12.5C2.00001 7.80545 5.80546 4 10.5 4C15.1946 4 19 7.80545 19 12.5C19 14.4142 18.3676 16.1805 17.3 17.6008L13.475 17.6" stroke="#2A3547" stroke-width="1.5" stroke-linecap="round" stroke-linejoin="round"/>
<path d="M10.5002 20.1498C11.1765 20.1498 11.8251 19.8811 12.3033 19.4029C12.7815 18.9247 13.0502 18.2761 13.0502 17.5998C13.0502 16.9235 12.7815 16.2749 12.3033 15.7967C11.8251 15.3185 11.1765 15.0498 10.5002 15.0498C9.82389 15.0498 9.17529 15.3185 8.69707 15.7967C8.21885 16.2749 7.9502 16.9235 7.9502 17.5998C7.9502 18.2761 8.21885 18.9247 8.69707 19.4029C9.17529 19.8811 9.82389 20.1498 10.5002 20.1498Z" stroke="#2A3547" stroke-width="1.5" stroke-linecap="round" stroke-linejoin="round"/>
</svg>
