<svg width="24" height="24" viewBox="0 0 24 24" fill="none" xmlns="http://www.w3.org/2000/svg">
<path d="M3 7V4C3 3.73478 3.10536 3.48043 3.29289 3.29289C3.48043 3.10536 3.73478 3 4 3H20C20.2652 3 20.5196 3.10536 20.7071 3.29289C20.8946 3.48043 21 3.73478 21 4V7M3 7L9.65 12.7C9.75977 12.7939 9.84789 12.9104 9.90831 13.0416C9.96873 13.1728 10 13.3156 10 13.46V19.72C10 19.8719 10.0347 20.0218 10.1013 20.1583C10.1679 20.2948 10.2648 20.4143 10.3845 20.5078C10.5042 20.6013 10.6436 20.6663 10.7922 20.6979C10.9408 20.7295 11.0946 20.7268 11.242 20.69L13.242 20.19C13.4584 20.136 13.6506 20.0112 13.788 19.8355C13.9253 19.6597 13.9999 19.4431 14 19.22V13.46C14 13.3156 14.0313 13.1728 14.0917 13.0416C14.1521 12.9104 14.2402 12.7939 14.35 12.7L21 7M3 7H21" stroke="#2A3547" stroke-width="1.5" stroke-linecap="round" stroke-linejoin="round"/>
</svg>
