<svg width="24" height="24" viewBox="0 0 24 24" fill="none" xmlns="http://www.w3.org/2000/svg">
<path d="M8.66667 20.0375H6.77778C5.77585 20.0375 4.81496 19.6395 4.10649 18.931C3.39801 18.2225 3 17.2616 3 16.2597V10.3173C2.99999 9.66768 3.16747 9.02908 3.48626 8.46312C3.80506 7.89715 4.26441 7.42296 4.81994 7.08631L9.54217 4.22465C10.1326 3.86689 10.8097 3.67773 11.5 3.67773C12.1903 3.67773 12.8674 3.86689 13.4578 4.22465L18.1801 7.08631C18.7355 7.42287 19.1947 7.89692 19.5135 8.46271C19.8323 9.02849 19.9999 9.6669 20 10.3163V16.2597C20 17.2616 19.602 18.2225 18.8935 18.931C18.185 19.6395 17.2242 20.0375 16.2222 20.0375H14.3333M8.66667 20.0375V16.2597C8.66667 15.5083 8.96518 14.7876 9.49653 14.2562C10.0279 13.7249 10.7486 13.4264 11.5 13.4264C12.2514 13.4264 12.9721 13.7249 13.5035 14.2562C14.0348 14.7876 14.3333 15.5083 14.3333 16.2597V20.0375M8.66667 20.0375H14.3333" stroke="#2A3547" stroke-width="1.5" stroke-linecap="round" stroke-linejoin="round"/>
</svg>
