<svg width="26" height="24" viewBox="0 0 26 24" fill="none" xmlns="http://www.w3.org/2000/svg">
<path d="M3.25 18.9999V18.1763C3.25 16.6474 3.90369 15.1812 5.06727 14.1001C6.23085 13.019 7.809 12.4116 9.45455 12.4116C11.1001 12.4116 12.6782 13.019 13.8418 14.1001C15.0054 15.1812 15.6591 16.6474 15.6591 18.1763V18.9999" stroke="#5A6A85" stroke-width="1.5" stroke-linecap="round"/>
<path d="M13.8867 14.0591C13.8867 12.967 14.3536 11.9196 15.1848 11.1474C16.0159 10.3752 17.1431 9.94141 18.3185 9.94141C18.9005 9.94141 19.4768 10.0479 20.0145 10.2548C20.5522 10.4618 21.0408 10.7651 21.4523 11.1474C21.8638 11.5298 22.1903 11.9837 22.413 12.4833C22.6357 12.9829 22.7504 13.5183 22.7504 14.0591V14.4708" stroke="#5A6A85" stroke-width="1.5" stroke-linecap="round"/>
<path d="M9.45317 12.4118C10.3935 12.4118 11.2953 12.0647 11.9602 11.4469C12.6251 10.8292 12.9986 9.9913 12.9986 9.11765C12.9986 8.24399 12.6251 7.40612 11.9602 6.78835C11.2953 6.17059 10.3935 5.82353 9.45317 5.82353C8.51286 5.82353 7.61106 6.17059 6.94615 6.78835C6.28125 7.40612 5.90771 8.24399 5.90771 9.11765C5.90771 9.9913 6.28125 10.8292 6.94615 11.4469C7.61106 12.0647 8.51286 12.4118 9.45317 12.4118ZM18.3168 9.94118C19.022 9.94118 19.6984 9.68088 20.1971 9.21756C20.6957 8.75423 20.9759 8.12583 20.9759 7.47059C20.9759 6.81535 20.6957 6.18694 20.1971 5.72362C19.6984 5.26029 19.022 5 18.3168 5C17.6116 5 16.9352 5.26029 16.4365 5.72362C15.9379 6.18694 15.6577 6.81535 15.6577 7.47059C15.6577 8.12583 15.9379 8.75423 16.4365 9.21756C16.9352 9.68088 17.6116 9.94118 18.3168 9.94118Z" stroke="#5A6A85" stroke-width="1.5" stroke-linecap="round" stroke-linejoin="round"/>
</svg>
