<svg width="24" height="24" viewBox="0 0 24 24" fill="none" xmlns="http://www.w3.org/2000/svg">
<path d="M4.90039 4H18.9004C19.5004 4 19.9004 4.4 19.9004 5V19C19.9004 19.6 19.5004 20 18.9004 20H4.90039C4.30039 20 3.90039 19.6 3.90039 19V5C3.90039 4.4 4.30039 4 4.90039 4V4Z" fill="#B2B1FF"/>
<path d="M22 14V5C22 3.3 20.7 2 19 2H5C3.3 2 2 3.3 2 5V19C2 20.7 3.3 22 5 22H19C20.7 22 22 20.7 22 19V14ZM5 4H19C19.6 4 20 4.4 20 5V13H17.5C16.8 13 16.2 13.3 15.8 13.9L14.4 16H9.5L8.1 13.9C7.7 13.3 7.1 13 6.4 13H4V5C4 4.4 4.4 4 5 4Z" fill="#4474FD"/>
</svg>
