<svg width="20" height="20" viewBox="0 0 20 20" fill="none" xmlns="http://www.w3.org/2000/svg">
<path d="M13.3333 9.99967H14.5C14.6326 9.99967 14.7598 10.0524 14.8536 10.1461C14.9473 10.2399 15 10.3671 15 10.4997V16.1663C15 16.2989 14.9473 16.4261 14.8536 16.5199C14.7598 16.6137 14.6326 16.6663 14.5 16.6663H5.5C5.36739 16.6663 5.24021 16.6137 5.14645 16.5199C5.05268 16.4261 5 16.2989 5 16.1663V10.4997C5 10.3671 5.05268 10.2399 5.14645 10.1461C5.24021 10.0524 5.36739 9.99967 5.5 9.99967H6.66667M13.3333 9.99967V6.66634C13.3333 5.55551 12.6667 3.33301 10 3.33301C7.33333 3.33301 6.66667 5.55551 6.66667 6.66634V9.99967M13.3333 9.99967H6.66667" stroke="#5A6A85" stroke-width="1.5" stroke-linecap="round" stroke-linejoin="round"/>
</svg>
