<svg width="24" height="25" viewBox="0 0 24 25" fill="none" xmlns="http://www.w3.org/2000/svg">
<path d="M20 9.10156V18.8516C20 21.8516 18.21 22.8516 16 22.8516H8C5.79 22.8516 4 21.8516 4 18.8516V9.10156C4 5.85156 5.79 5.10156 8 5.10156C8 5.72156 8.24997 6.28156 8.65997 6.69156C9.06997 7.10156 9.63 7.35156 10.25 7.35156H13.75C14.99 7.35156 16 6.34156 16 5.10156C18.21 5.10156 20 5.85156 20 9.10156Z" fill="#CDE2FE"/>
<path d="M16 5.10156C16 6.34156 14.99 7.35156 13.75 7.35156H10.25C9.63 7.35156 9.06997 7.10156 8.65997 6.69156C8.24997 6.28156 8 5.72156 8 5.10156C8 3.86156 9.01 2.85156 10.25 2.85156H13.75C14.37 2.85156 14.93 3.10157 15.34 3.51157C15.75 3.92157 16 4.48156 16 5.10156Z" fill="#4474FD"/>
<path d="M12 14.6016H8C7.59 14.6016 7.25 14.2616 7.25 13.8516C7.25 13.4416 7.59 13.1016 8 13.1016H12C12.41 13.1016 12.75 13.4416 12.75 13.8516C12.75 14.2616 12.41 14.6016 12 14.6016Z" fill="#4474FD"/>
<path d="M16 18.6016H8C7.59 18.6016 7.25 18.2616 7.25 17.8516C7.25 17.4416 7.59 17.1016 8 17.1016H16C16.41 17.1016 16.75 17.4416 16.75 17.8516C16.75 18.2616 16.41 18.6016 16 18.6016Z" fill="#4474FD"/>
</svg>
