<svg width="24" height="25" viewBox="0 0 24 25" fill="none" xmlns="http://www.w3.org/2000/svg">
<path d="M20 9.02002V18.77C20 21.77 18.21 22.77 16 22.77H8C5.79 22.77 4 21.77 4 18.77V9.02002C4 5.77002 5.79 5.02002 8 5.02002C8 5.64002 8.24997 6.20002 8.65997 6.61002C9.06997 7.02002 9.63 7.27002 10.25 7.27002H13.75C14.99 7.27002 16 6.26002 16 5.02002C18.21 5.02002 20 5.77002 20 9.02002Z" fill="#CDE2FE"/>
<path d="M16 5.02002C16 6.26002 14.99 7.27002 13.75 7.27002H10.25C9.63 7.27002 9.06997 7.02002 8.65997 6.61002C8.24997 6.20002 8 5.64002 8 5.02002C8 3.78002 9.01 2.77002 10.25 2.77002H13.75C14.37 2.77002 14.93 3.02002 15.34 3.43002C15.75 3.84002 16 4.40002 16 5.02002Z" fill="#4474FD"/>
<path d="M12 14.52H8C7.59 14.52 7.25 14.18 7.25 13.77C7.25 13.36 7.59 13.02 8 13.02H12C12.41 13.02 12.75 13.36 12.75 13.77C12.75 14.18 12.41 14.52 12 14.52Z" fill="#4474FD"/>
<path d="M16 18.52H8C7.59 18.52 7.25 18.18 7.25 17.77C7.25 17.36 7.59 17.02 8 17.02H16C16.41 17.02 16.75 17.36 16.75 17.77C16.75 18.18 16.41 18.52 16 18.52Z" fill="#4474FD"/>
</svg>
