<svg width="24" height="24" viewBox="0 0 24 24" fill="none" xmlns="http://www.w3.org/2000/svg">
<path d="M17.3337 9.49967V15.9997C17.3337 17.9997 16.1403 18.6663 14.667 18.6663H9.33366C7.86033 18.6663 6.66699 17.9997 6.66699 15.9997V9.49967C6.66699 7.33301 7.86033 6.83301 9.33366 6.83301C9.33366 7.24634 9.50031 7.61967 9.77364 7.89301C10.047 8.16634 10.4203 8.33301 10.8337 8.33301H13.167C13.9937 8.33301 14.667 7.65967 14.667 6.83301C16.1403 6.83301 17.3337 7.33301 17.3337 9.49967Z" stroke="white" stroke-width="1.2" stroke-linecap="round" stroke-linejoin="round"/>
<path d="M14.6663 6.83301C14.6663 7.65967 13.993 8.33301 13.1663 8.33301H10.833C10.4197 8.33301 10.0463 8.16634 9.77299 7.89301C9.49966 7.61967 9.33301 7.24634 9.33301 6.83301C9.33301 6.00634 10.0063 5.33301 10.833 5.33301H13.1663C13.5797 5.33301 13.953 5.49968 14.2264 5.77301C14.4997 6.04634 14.6663 6.41967 14.6663 6.83301Z" stroke="white" stroke-width="1.2" stroke-linecap="round" stroke-linejoin="round"/>
<path d="M9.33301 12.667H11.9997" stroke="white" stroke-width="1.2" stroke-linecap="round" stroke-linejoin="round"/>
<path d="M9.33301 15.333H14.6663" stroke="white" stroke-width="1.2" stroke-linecap="round" stroke-linejoin="round"/>
</svg>
