<svg width="24" height="24" viewBox="0 0 24 24" fill="none" xmlns="http://www.w3.org/2000/svg">
<path d="M20.4852 3H16.4932L16.9932 8C16.9932 8 17.9932 9 19.4932 9C20.2806 9.00104 21.0412 8.71441 21.6322 8.194C21.6949 8.1358 21.7416 8.06248 21.7678 7.98107C21.7941 7.89966 21.799 7.81287 21.7822 7.729L21.0762 3.5C21.0525 3.36029 20.9803 3.23345 20.8721 3.14194C20.7639 3.05042 20.6269 3.00014 20.4852 3Z" stroke="#2A3547" stroke-width="1.5"/>
<path d="M16.4932 3L16.9932 8C16.9932 8 15.9932 9 14.4932 9C12.9932 9 11.9932 8 11.9932 8V3H16.4932Z" stroke="#2A3547" stroke-width="1.5"/>
<path d="M11.9932 3V8C11.9932 8 10.9932 9 9.49316 9C7.99316 9 6.99316 8 6.99316 8L7.49316 3H11.9932Z" stroke="#2A3547" stroke-width="1.5"/>
<path d="M7.49312 3H3.50212C3.36012 2.99995 3.2227 3.05026 3.1143 3.142C3.0059 3.23373 2.93356 3.36094 2.91012 3.501L2.20512 7.73C2.18826 7.81387 2.1932 7.90066 2.21946 7.98207C2.24572 8.06348 2.29243 8.1368 2.35512 8.195C2.68312 8.485 3.41612 9.001 4.49312 9.001C5.99312 9.001 6.99312 8.001 6.99312 8.001L7.49312 3Z" stroke="#2A3547" stroke-width="1.5"/>
<path d="M3 9V19C3 19.5304 3.21071 20.0391 3.58579 20.4142C3.96086 20.7893 4.46957 21 5 21H19C19.5304 21 20.0391 20.7893 20.4142 20.4142C20.7893 20.0391 21 19.5304 21 19V9" stroke="#2A3547" stroke-width="1.5"/>
<path d="M14.833 21V15C14.833 14.4696 14.6223 13.9609 14.2472 13.5858C13.8721 13.2107 13.3634 13 12.833 13H10.833C10.3026 13 9.79387 13.2107 9.41879 13.5858C9.04372 13.9609 8.83301 14.4696 8.83301 15V21" stroke="#2A3547" stroke-width="1.5" stroke-miterlimit="16"/>
</svg>
