<svg width="24" height="24" viewBox="0 0 24 24" fill="none" xmlns="http://www.w3.org/2000/svg">
<path d="M16.19 2H7.81C4.17 2 2 4.17 2 7.81V16.18C2 19.83 4.17 22 7.81 22H16.18C19.82 22 21.99 19.83 21.99 16.19V7.81C22 4.17 19.83 2 16.19 2Z" fill="#EAEFF4"/>
<path d="M16.8314 9.40998C16.7614 9.23998 16.6214 9.09998 16.4514 9.02998C16.3714 8.99998 16.2814 8.97998 16.1914 8.97998H14.3314C13.9414 8.97998 13.6314 9.28998 13.6314 9.67998C13.6314 10.07 13.9414 10.38 14.3314 10.38H14.5114L12.4014 12.49L11.3814 10.97C11.2614 10.8 11.0814 10.68 10.8714 10.66C10.6514 10.64 10.4614 10.71 10.3114 10.86L7.33141 13.84C7.06141 14.11 7.06141 14.55 7.33141 14.83C7.47141 14.97 7.64141 15.03 7.82141 15.03C8.00141 15.03 8.18141 14.96 8.31141 14.83L10.6914 12.45L11.7114 13.97C11.8314 14.14 12.0114 14.26 12.2214 14.28C12.4414 14.3 12.6314 14.23 12.7814 14.08L15.5014 11.36V11.54C15.5014 11.93 15.8114 12.24 16.2014 12.24C16.5914 12.24 16.9014 11.93 16.9014 11.54V9.66998C16.8814 9.57998 16.8714 9.48998 16.8314 9.40998Z" fill="#7C8FAC"/>
</svg>
