<svg width="24" height="24" viewBox="0 0 24 24" fill="none" xmlns="http://www.w3.org/2000/svg">
<path d="M11.9414 14C10.7547 14 9.59468 13.6481 8.60799 12.9888C7.62129 12.3295 6.85226 11.3925 6.39813 10.2961C5.94401 9.19975 5.82519 7.99335 6.0567 6.82946C6.28821 5.66558 6.85965 4.59648 7.69877 3.75736C8.53788 2.91825 9.60698 2.3468 10.7709 2.11529C11.9348 1.88378 13.1412 2.0026 14.2375 2.45673C15.3339 2.91085 16.2709 3.67989 16.9302 4.66658C17.5895 5.65328 17.9414 6.81331 17.9414 8C17.9396 9.59073 17.3068 11.1158 16.182 12.2406C15.0572 13.3654 13.5321 13.9982 11.9414 14Z" fill="#B2B1FF"/>
<path d="M15.6408 12.7129C14.5863 13.5455 13.2819 13.9983 11.9383 13.9983C10.5947 13.9983 9.29038 13.5455 8.23584 12.7129C6.55369 13.3837 5.08547 14.499 3.98814 15.9396C2.8908 17.3802 2.20562 19.092 2.00584 20.8919C1.97724 21.1555 2.05451 21.4197 2.22065 21.6263C2.3868 21.833 2.62823 21.9652 2.89184 21.9939L20.8808 21.9999C21.0213 22 21.1603 21.9705 21.2886 21.9133C21.417 21.8562 21.5318 21.7726 21.6257 21.668C21.7196 21.5635 21.7904 21.4404 21.8335 21.3066C21.8766 21.1729 21.891 21.0316 21.8758 20.8919C21.6755 19.0918 20.9897 17.3799 19.8919 15.9393C18.794 14.4987 17.3254 13.3835 15.6428 12.7129H15.6408Z" fill="#4474FD"/>
</svg>
