<svg width="26" height="24" viewBox="0 0 26 24" fill="none" xmlns="http://www.w3.org/2000/svg">
<path d="M19.2323 7.04997C18.9723 7.00997 18.7015 6.99998 18.4198 6.99998H7.58648C7.28315 6.99998 6.99065 7.01998 6.70898 7.05998C6.86065 6.77998 7.07732 6.52001 7.33732 6.28001L10.8582 3.02C12.3423 1.66 14.7473 1.66 16.2315 3.02L18.1273 4.78996C18.8207 5.41996 19.189 6.21997 19.2323 7.04997Z" stroke="#5A6A85" stroke-width="1.5" stroke-linecap="round" stroke-linejoin="round"/>
<path d="M9.75016 19C9.75016 19.75 9.52266 20.46 9.12183 21.06C8.37433 22.22 6.9985 23 5.41683 23C3.83516 23 2.45933 22.22 1.71183 21.06C1.311 20.46 1.0835 19.75 1.0835 19C1.0835 16.79 3.02266 15 5.41683 15C7.811 15 9.75016 16.79 9.75016 19Z" stroke="#5A6A85" stroke-width="1.5" stroke-miterlimit="10" stroke-linecap="round" stroke-linejoin="round"/>
<path d="M7.03156 18.9795H3.80322" stroke="#5A6A85" stroke-width="1.5" stroke-miterlimit="10" stroke-linecap="round" stroke-linejoin="round"/>
<path d="M5.41699 17.5195V20.5095" stroke="#5A6A85" stroke-width="1.5" stroke-miterlimit="10" stroke-linecap="round" stroke-linejoin="round"/>
<path d="M23.8332 12V17C23.8332 20 21.6665 22 18.4165 22H8.26567C8.6015 21.74 8.894 21.42 9.1215 21.06C9.52234 20.46 9.74984 19.75 9.74984 19C9.74984 16.79 7.81067 15 5.4165 15C4.1165 15 2.95734 15.53 2.1665 16.36V12C2.1665 9.28 3.94317 7.38 6.70567 7.06C6.98734 7.02 7.27984 7 7.58317 7H18.4165C18.6982 7 18.969 7.00999 19.229 7.04999C22.024 7.34999 23.8332 9.26 23.8332 12Z" stroke="#5A6A85" stroke-width="1.5" stroke-linecap="round" stroke-linejoin="round"/>
<path d="M23.8332 12.5H20.5832C19.3915 12.5 18.4165 13.4 18.4165 14.5C18.4165 15.6 19.3915 16.5 20.5832 16.5H23.8332" stroke="#5A6A85" stroke-width="1.5" stroke-linecap="round" stroke-linejoin="round"/>
</svg>
