<svg width="24" height="24" viewBox="0 0 24 24" fill="none" xmlns="http://www.w3.org/2000/svg">
<path d="M13 21H4C3.46957 21 2.96086 20.7893 2.58579 20.4142C2.21071 20.0391 2 19.5304 2 19V5C2 4.46957 2.21071 3.96086 2.58579 3.58579C2.96086 3.21071 3.46957 3 4 3H20C20.5304 3 21.0391 3.21071 21.4142 3.58579C21.7893 3.96086 22 4.46957 22 5V15" stroke="#2A3547" stroke-width="1.5" stroke-linecap="round"/>
<path d="M2 7.00002H22M5 5.01002L5.01 4.99902M8 5.01002L8.01 4.99902M11 5.01002L11.01 4.99902M16 20L18 22L22 18" stroke="#2A3547" stroke-width="1.5" stroke-linecap="round" stroke-linejoin="round"/>
</svg>
