<svg width="25" height="24" viewBox="0 0 25 24" fill="none" xmlns="http://www.w3.org/2000/svg">
<path d="M10.088 4.5L7.37305 7.2225" stroke="#5A6A85" stroke-width="1.5" stroke-miterlimit="10" stroke-linecap="round" stroke-linejoin="round"/>
<path d="M14.873 4.5L17.588 7.2225" stroke="#5A6A85" stroke-width="1.5" stroke-miterlimit="10" stroke-linecap="round" stroke-linejoin="round"/>
<path d="M4.98047 8.8877C4.98047 7.5002 5.72297 7.3877 6.64547 7.3877H18.3155C19.238 7.3877 19.9805 7.5002 19.9805 8.8877C19.9805 10.5002 19.238 10.3877 18.3155 10.3877H6.64547C5.72297 10.3877 4.98047 10.5002 4.98047 8.8877Z" stroke="#5A6A85" stroke-width="1.5"/>
<path d="M10.8008 13.5V16.1625" stroke="#5A6A85" stroke-width="1.5" stroke-linecap="round"/>
<path d="M14.25 13.5V16.1625" stroke="#5A6A85" stroke-width="1.5" stroke-linecap="round"/>
<path d="M6.10547 10.5L7.16297 16.98C7.40297 18.435 7.98047 19.5 10.1255 19.5H14.648C16.9805 19.5 17.3255 18.48 17.5955 17.07L18.8555 10.5" stroke="#5A6A85" stroke-width="1.5" stroke-linecap="round"/>
</svg>
