<svg width="25" height="24" viewBox="0 0 25 24" fill="none" xmlns="http://www.w3.org/2000/svg">
<path d="M10.2305 19.5H14.7305C18.4805 19.5 19.9805 18 19.9805 14.25V9.75C19.9805 6 18.4805 4.5 14.7305 4.5H10.2305C6.48047 4.5 4.98047 6 4.98047 9.75V14.25C4.98047 18 6.48047 19.5 10.2305 19.5Z" stroke="#5A6A85" stroke-width="1.5" stroke-linecap="round" stroke-linejoin="round"/>
<path d="M15.1055 16.875C15.9305 16.875 16.6055 16.2 16.6055 15.375V8.625C16.6055 7.8 15.9305 7.125 15.1055 7.125C14.2805 7.125 13.6055 7.8 13.6055 8.625V15.375C13.6055 16.2 14.273 16.875 15.1055 16.875Z" stroke="#5A6A85" stroke-width="1.5" stroke-linecap="round" stroke-linejoin="round"/>
<path d="M9.85547 16.875C10.6805 16.875 11.3555 16.2 11.3555 15.375V12.75C11.3555 11.925 10.6805 11.25 9.85547 11.25C9.03047 11.25 8.35547 11.925 8.35547 12.75V15.375C8.35547 16.2 9.02297 16.875 9.85547 16.875Z" stroke="#5A6A85" stroke-width="1.5" stroke-linecap="round" stroke-linejoin="round"/>
</svg>
