<svg width="25" height="24" viewBox="0 0 25 24" fill="none" xmlns="http://www.w3.org/2000/svg">
<path d="M3.48047 18.9999V18.1763C3.48047 16.6474 4.08388 15.1812 5.15795 14.1001C6.23202 13.019 7.68877 12.4116 9.20774 12.4116C10.7267 12.4116 12.1835 13.019 13.2575 14.1001C14.3316 15.1812 14.935 16.6474 14.935 18.1763V18.9999" stroke="#5A6A85" stroke-width="1.5" stroke-linecap="round"/>
<path d="M13.2988 14.0591C13.2988 12.967 13.7298 11.9196 14.497 11.1474C15.2642 10.3752 16.3048 9.94141 17.3897 9.94141C17.927 9.94141 18.4589 10.0479 18.9553 10.2548C19.4516 10.4618 19.9026 10.7651 20.2824 11.1474C20.6623 11.5298 20.9637 11.9837 21.1692 12.4833C21.3748 12.9829 21.4806 13.5183 21.4806 14.0591V14.4708" stroke="#5A6A85" stroke-width="1.5" stroke-linecap="round"/>
<path d="M9.20632 12.4118C10.0743 12.4118 10.9067 12.0647 11.5205 11.4469C12.1342 10.8292 12.479 9.9913 12.479 9.11765C12.479 8.24399 12.1342 7.40612 11.5205 6.78835C10.9067 6.17059 10.0743 5.82353 9.20632 5.82353C8.33834 5.82353 7.50591 6.17059 6.89215 6.78835C6.2784 7.40612 5.93359 8.24399 5.93359 9.11765C5.93359 9.9913 6.2784 10.8292 6.89215 11.4469C7.50591 12.0647 8.33834 12.4118 9.20632 12.4118ZM17.3881 9.94118C18.0391 9.94118 18.6634 9.68088 19.1238 9.21756C19.5841 8.75423 19.8427 8.12583 19.8427 7.47059C19.8427 6.81535 19.5841 6.18694 19.1238 5.72362C18.6634 5.26029 18.0391 5 17.3881 5C16.7372 5 16.1128 5.26029 15.6525 5.72362C15.1922 6.18694 14.9336 6.81535 14.9336 7.47059C14.9336 8.12583 15.1922 8.75423 15.6525 9.21756C16.1128 9.68088 16.7372 9.94118 17.3881 9.94118Z" stroke="#5A6A85" stroke-width="1.5" stroke-linecap="round" stroke-linejoin="round"/>
</svg>
