<svg width="19" height="18" viewBox="0 0 19 18" fill="none" xmlns="http://www.w3.org/2000/svg">
<path d="M13.795 5.28748C13.615 5.25748 13.4275 5.24999 13.2325 5.24999H5.7325C5.5225 5.24999 5.32 5.26498 5.125 5.29498C5.23 5.08498 5.38 4.89001 5.56 4.71001L7.9975 2.265C9.025 1.245 10.69 1.245 11.7175 2.265L13.03 3.59247C13.51 4.06497 13.765 4.66498 13.795 5.28748Z" stroke="#5A6A85" stroke-width="1.5" stroke-linecap="round" stroke-linejoin="round"/>
<path d="M7.23047 14.25C7.23047 14.8125 7.07297 15.345 6.79547 15.795C6.27797 16.665 5.32547 17.25 4.23047 17.25C3.13547 17.25 2.18297 16.665 1.66547 15.795C1.38797 15.345 1.23047 14.8125 1.23047 14.25C1.23047 12.5925 2.57297 11.25 4.23047 11.25C5.88797 11.25 7.23047 12.5925 7.23047 14.25Z" stroke="#5A6A85" stroke-width="1.5" stroke-miterlimit="10" stroke-linecap="round" stroke-linejoin="round"/>
<path d="M5.34828 14.2344H3.11328" stroke="#5A6A85" stroke-width="1.5" stroke-miterlimit="10" stroke-linecap="round" stroke-linejoin="round"/>
<path d="M4.23047 13.1396V15.3821" stroke="#5A6A85" stroke-width="1.5" stroke-miterlimit="10" stroke-linecap="round" stroke-linejoin="round"/>
<path d="M16.9805 9V12.75C16.9805 15 15.4805 16.5 13.2305 16.5H6.20297C6.43547 16.305 6.63797 16.065 6.79547 15.795C7.07297 15.345 7.23047 14.8125 7.23047 14.25C7.23047 12.5925 5.88797 11.25 4.23047 11.25C3.33047 11.25 2.52797 11.6475 1.98047 12.27V9C1.98047 6.96 3.21047 5.535 5.12297 5.295C5.31797 5.265 5.52047 5.25 5.73047 5.25H13.2305C13.4255 5.25 13.613 5.25749 13.793 5.28749C15.728 5.51249 16.9805 6.945 16.9805 9Z" stroke="#5A6A85" stroke-width="1.5" stroke-linecap="round" stroke-linejoin="round"/>
<path d="M16.9805 9.375H14.7305C13.9055 9.375 13.2305 10.05 13.2305 10.875C13.2305 11.7 13.9055 12.375 14.7305 12.375H16.9805" stroke="#5A6A85" stroke-width="1.5" stroke-linecap="round" stroke-linejoin="round"/>
</svg>
